<svg viewBox="0 0 42 56" fill="none" xmlns="http://www.w3.org/2000/svg"><path d="M41.23 29.363C41.23 18.117 32.111 9 20.865 9 9.619 9 .502 18.117.502 29.363v2.192c0 11.247 9.117 20.364 20.364 20.364 11.246 0 20.363-9.117 20.363-20.364v-2.192z" fill="#FFB7E3"/><path d="M11.722 49.755c6.72.077 11.807-1.493 15.642-3.883 4.342-2.705 7.004-6.413 8.629-9.793a.959.959 0 1 0-1.729-.831c-1.508 3.14-3.954 6.53-7.914 8.997-3.953 2.463-9.49 4.055-17.272 3.477a.954.954 0 0 0-.48.088c.977.738 2.021 1.39 3.124 1.945z" fill="#FF9BD8"/><path d="M20.893 13.648c8.952 0 16.209 7.257 16.209 16.209 0 8.951-7.257 16.208-16.209 16.208S4.685 38.808 4.685 29.857c0-8.952 7.256-16.21 16.208-16.21z" fill="#E18E70"/><path d="M22.073 27.734a3.718 3.718 0 1 0 4.277 5.75l-.006.016.108-.06c.236-.097.463-.222.678-.37.84-.458 1.597-.849 2.271-1.176a3.63 3.63 0 0 0 .734-.346c.093-.05.168-.099.224-.15a3.717 3.717 0 0 0-2.195-6.733c-2.441.015-4.563 1.107-6.09 3.069z" fill="#fff"/><path d="M25.295 26.533a2.466 2.466 0 0 1 2.465 2.465v1.187a2.466 2.466 0 0 1-4.93 0v-1.187a2.466 2.466 0 0 1 2.465-2.465z" fill="#fff"/><path d="M24.476 27.367a1.495 1.495 0 0 1-1.643 1.489 2.58 2.58 0 0 0-.004.142v1.187a2.466 2.466 0 0 0 4.931 0v-1.187a2.466 2.466 0 0 0-3.427-2.27c.091.193.143.41.143.639z" fill="#3D3D3D"/><path d="M19.987 27.734a3.718 3.718 0 1 1-4.277 5.75l.007.016-.109-.06a3.593 3.593 0 0 1-.678-.37 54.928 54.928 0 0 0-2.27-1.176 3.63 3.63 0 0 1-.735-.346 1.02 1.02 0 0 1-.223-.15 3.717 3.717 0 0 1 2.195-6.733c2.44.015 4.562 1.107 6.09 3.069z" fill="#fff"/><path d="M16.893 26.533a2.466 2.466 0 0 1 2.466 2.465v1.187a2.466 2.466 0 0 1-4.931 0v-1.187a2.466 2.466 0 0 1 2.465-2.465z" fill="#fff"/><path d="M14.454 28.638a1.495 1.495 0 0 0 2.048-2.075 2.466 2.466 0 0 1 2.857 2.435v1.187a2.466 2.466 0 0 1-4.931 0v-1.187c0-.122.009-.242.026-.36z" fill="#3D3D3D"/><path fill-rule="evenodd" clip-rule="evenodd" d="M32.739 32.852l.146-1.407.146-1.408h-.005l-.008-.002-.026-.002a10.091 10.091 0 0 0-.37-.025 14.945 14.945 0 0 0-1.003-.014c-.837.016-1.997.1-3.296.377-2.588.55-5.849 1.895-8.121 5.104l2.31 1.636c1.72-2.428 4.222-3.508 6.4-3.972a14.7 14.7 0 0 1 2.76-.314 12.118 12.118 0 0 1 1.062.027h.007-.002z" fill="#E18E70"/><path d="M29.929 16.398c-3.64 3.713-10.2 10.113-22.15 9.706-.808-.028-1.8-.302-2.505-.595 1.9-6.84 8.174-11.861 15.62-11.861 3.345 0 6.453 1.013 9.035 2.75z" fill="#3D3D3D"/><path d="M2.103 19.432l10.017 2.582a.81.81 0 0 1 .47 1.223c-1.434 2.214-4.17 3.273-6.783 2.569-2.613-.704-4.455-2.995-4.595-5.633-.03-.548.36-.884.89-.741z" fill="#3D3D3D"/><path fill-rule="evenodd" clip-rule="evenodd" d="M3.793 19.884c3.44.831 4.983-1.034 6.569-2.326 1.057-.86 2.321-.086 3.792 2.326l-4.15 3.087-5.698-1.076C1.67 20 1.499 19.329 3.793 19.884z" fill="#3D3D3D"/><path fill-rule="evenodd" clip-rule="evenodd" d="M9.22 32.944l-.147-1.408-.146-1.408h.005l.008-.001.025-.003.083-.007c.07-.005.166-.012.287-.018.242-.012.584-.021 1.004-.013.837.015 1.997.1 3.296.376 2.588.551 5.849 1.895 8.121 5.104l-2.31 1.636c-1.72-2.427-4.222-3.507-6.4-3.971a14.701 14.701 0 0 0-2.76-.315 12.119 12.119 0 0 0-1.062.027h-.007.002z" fill="#E18E70"/><path fill-rule="evenodd" clip-rule="evenodd" d="M33.33 32.944l.147-1.408.146-1.408h-.005l-.009-.001-.025-.003a10.14 10.14 0 0 0-.37-.025 14.947 14.947 0 0 0-1.004-.013c-.837.015-1.996.1-3.296.376-2.587.551-5.848 1.895-8.12 5.104l2.31 1.636c1.719-2.427 4.222-3.507 6.4-3.971a14.7 14.7 0 0 1 2.759-.315 12.12 12.12 0 0 1 1.063.027h.007-.003z" fill="#E18E70"/><path fill-rule="evenodd" clip-rule="evenodd" d="M21.003 36.212c.857 0 1.552-.686 1.552-1.533 0-.847-1.552-2.85-1.552-2.85s-1.553 2.003-1.553 2.85.695 1.533 1.553 1.533zM18.342 36.38c.26-.16.6-.076.759.185.717 1.184 1.339 1.56 1.822 1.56.5 0 1.173-.396 2-1.588a.552.552 0 1 1 .908.63c-.862 1.242-1.825 2.063-2.908 2.063-1.1 0-2.008-.84-2.767-2.092a.552.552 0 0 1 .186-.759z" fill="#9E4D31"/></svg>